<?xml version="1.0" standalone="no"?>
<!DOCTYPE svg PUBLIC "-//W3C//DTD SVG 20010904//EN"
 "http://www.w3.org/TR/2001/REC-SVG-20010904/DTD/svg10.dtd">
<svg version="1.0" xmlns="http://www.w3.org/2000/svg"
 width="491.000000pt" height="508.000000pt" viewBox="0 0 491.000000 508.000000"
 preserveAspectRatio="xMidYMid meet">

<g transform="translate(0.000000,508.000000) scale(0.100000,-0.100000)"
fill="#000000" stroke="none">
<path d="M1965 4945 c-382 -35 -782 -115 -1178 -235 -165 -49 -594 -194 -603
-202 -4 -5 36 -720 40 -725 2 -2 63 19 137 46 328 119 598 200 839 255 353 79
616 118 924 136 804 46 1517 -68 2384 -381 90 -33 165 -59 168 -59 2 0 4 27 4
59 0 53 24 493 33 614 5 59 18 52 -258 147 -567 194 -1049 302 -1535 345 -204
18 -756 18 -955 0z m349 -121 c38 -37 -1 -84 -69 -84 -45 0 -45 0 -45 -35 0
-19 -4 -35 -9 -35 -9 0 -21 148 -14 163 8 14 121 8 137 -9z m204 4 c19 -19 14
-56 -8 -68 -20 -11 -20 -12 10 -51 29 -36 30 -39 11 -39 -12 0 -21 3 -21 8 0
20 -61 72 -84 72 -24 0 -26 -4 -26 -40 0 -29 -4 -40 -15 -40 -12 0 -15 16 -15
85 l0 85 68 0 c40 0 73 -5 80 -12z m212 2 c0 -5 -24 -10 -54 -10 -40 0 -55 -4
-60 -16 -12 -30 -6 -34 49 -34 30 0 55 -4 55 -10 0 -5 -25 -10 -55 -10 -54 0
-55 0 -55 -30 l0 -30 60 0 c35 0 60 -4 60 -10 0 -7 -27 -10 -72 -8 -40 2 -72
6 -70 11 1 4 2 41 2 82 l0 75 70 0 c40 0 70 -4 70 -10z m-702 -35 c31 -37 29
-80 -7 -116 -29 -29 -76 -38 -116 -23 -20 8 -45 56 -45 86 0 29 25 67 54 79
35 14 89 2 114 -26z m971 15 c29 -15 27 -55 -4 -76 -18 -11 -35 -14 -65 -9
-37 6 -40 5 -40 -17 0 -27 -16 -55 -25 -46 -4 3 -3 43 1 88 l7 83 53 -6 c29
-3 62 -10 73 -17z m-1194 -57 c3 -32 9 -70 11 -85 4 -20 1 -28 -9 -28 -10 0
-17 22 -24 80 -5 45 -7 83 -4 85 13 14 20 -1 26 -52z m1411 23 c36 -30 37 -86
3 -122 -43 -46 -137 -26 -160 33 -12 31 5 88 29 103 33 19 99 12 128 -14z
m-1525 4 c10 -6 19 -17 19 -25 0 -19 -8 -19 -26 0 -36 36 -114 -2 -114 -56 0
-57 55 -84 115 -57 32 14 29 43 -5 44 -14 1 -29 2 -35 3 -17 4 28 20 58 20 24
1 27 -2 27 -35 0 -31 -4 -37 -35 -50 -94 -39 -174 20 -143 107 16 45 93 73
139 49z m1635 -32 c-4 -18 -10 -54 -13 -80 l-6 -46 47 -7 c44 -7 65 -25 29
-25 -24 1 -93 17 -100 23 -5 6 16 146 24 160 2 4 9 7 15 7 7 0 8 -12 4 -32z
m-1846 3 c0 -11 -17 -17 -72 -27 -37 -6 -44 -17 -32 -47 4 -11 13 -13 42 -6
49 11 75 11 68 0 -4 -5 -25 -12 -49 -16 -55 -9 -55 -10 -49 -41 4 -25 7 -26
46 -20 22 4 51 9 64 13 12 3 22 1 22 -5 0 -11 -24 -18 -97 -28 l-51 -6 -12 58
c-6 33 -14 69 -17 81 -4 19 2 23 59 36 79 19 78 19 78 8z m2015 -34 c-2 -12
-9 -48 -15 -79 -7 -35 -17 -58 -24 -58 -11 0 -11 14 1 73 8 39 16 78 19 85 7
22 24 3 19 -21z m164 -8 c41 -14 68 -59 36 -59 -8 0 -15 7 -15 15 0 15 -37 35
-65 35 -25 0 -55 -42 -55 -76 0 -23 7 -38 22 -48 25 -18 64 -21 73 -6 3 6 16
10 28 10 l22 -1 -24 -19 c-35 -30 -86 -26 -122 9 -43 44 -33 111 21 138 31 16
39 16 79 2z m-2448 -78 c15 -79 18 -83 59 -71 43 12 60 13 60 2 0 -10 -109
-36 -117 -29 -3 4 -42 142 -43 155 0 1 7 2 14 2 10 0 19 -19 27 -59z m2583 33
c-13 -88 -54 -193 -54 -136 0 35 35 152 45 148 5 -2 9 -7 9 -12z m-2689 -10
c19 -8 45 -55 45 -83 0 -12 -13 -35 -28 -52 -23 -25 -36 -32 -71 -33 -35 -1
-47 4 -67 27 -15 18 -24 41 -24 62 0 60 80 104 145 79z m2840 -36 c6 -27 25
-149 25 -161 0 -22 -26 3 -30 28 -4 24 -13 31 -47 41 -40 12 -43 11 -58 -13
-12 -17 -20 -22 -27 -15 -7 7 7 31 47 76 62 70 82 80 90 44z m-1647 -28 c50
-31 66 -97 41 -169 -21 -59 -119 -82 -172 -40 -46 35 -58 134 -23 181 18 24
66 48 96 48 14 0 40 -9 58 -20z m306 11 c55 -9 66 -21 66 -72 0 -46 -23 -67
-80 -71 l-45 -3 -3 -47 c-2 -27 -7 -48 -12 -48 -32 0 -35 11 -32 130 l3 120
27 -1 c15 0 49 -4 76 -8z m-1704 -16 c10 -12 5 -13 -37 -8 -58 6 -83 -11 -83
-58 0 -32 38 -79 63 -79 20 0 67 39 67 56 0 8 5 14 10 14 17 0 11 -36 -8 -53
-56 -51 -130 -38 -152 28 -14 43 -7 68 27 95 30 24 95 27 113 5z m1174 -101
c6 -92 5 -119 -6 -125 -27 -17 -33 0 -40 107 -8 122 -6 134 20 134 17 0 20
-11 26 -116z m843 84 c50 -51 39 -163 -21 -199 -38 -23 -77 -24 -117 -3 -67
34 -76 151 -16 207 28 26 37 29 80 24 34 -3 56 -12 74 -29z m1153 25 c0 -5 -9
-37 -20 -73 -11 -36 -20 -66 -20 -67 0 -2 20 -8 45 -14 25 -6 45 -15 45 -20 0
-12 -8 -11 -69 7 -39 11 -51 19 -47 30 3 8 13 40 22 72 19 66 22 72 35 72 5 0
9 -3 9 -7z m-2121 -27 c7 -8 15 -30 18 -49 7 -44 -21 -74 -77 -83 -39 -6 -40
-7 -40 -49 0 -31 -5 -45 -16 -49 -9 -4 -19 -4 -22 -2 -7 7 -29 236 -23 241 2
3 37 5 76 5 50 0 76 -4 84 -14z m1148 -67 c39 -85 51 -87 52 -9 1 19 4 45 7
58 6 22 28 30 38 13 7 -11 -14 -223 -23 -233 -19 -22 -48 8 -81 82 -36 81 -48
83 -49 10 -2 -57 -11 -80 -33 -80 -17 0 -19 5 -15 33 3 17 9 64 12 102 9 93
13 105 36 105 15 0 29 -19 56 -81z m-1377 54 c0 -5 7 -55 15 -113 8 -58 15
-108 15 -112 0 -5 -11 -8 -24 -8 -23 0 -24 4 -36 103 -6 56 -14 110 -16 120
-4 13 1 17 20 17 14 0 26 -3 26 -7z m1704 -34 c14 -11 26 -29 26 -39 0 -20
-33 -37 -38 -20 -14 41 -68 52 -97 20 -23 -25 -31 -100 -13 -121 23 -29 55
-32 79 -8 16 16 26 19 41 12 20 -9 20 -9 -3 -35 -37 -41 -107 -42 -144 -2 -20
22 -25 37 -25 83 0 56 14 91 48 119 25 20 96 15 126 -9z m-1913 -1 c0 -7 6
-49 12 -93 l12 -80 60 0 c46 0 60 -3 63 -16 2 -13 -13 -18 -75 -27 -52 -7 -80
-7 -84 0 -3 5 -12 49 -18 96 -7 48 -15 97 -18 110 -4 18 -1 22 21 22 14 0 26
-6 27 -12z m2127 -29 c47 -10 62 -17 60 -29 -4 -15 -25 -17 -98 -9 -32 4 -35
2 -35 -20 0 -22 7 -26 50 -36 34 -7 51 -16 53 -28 4 -19 -20 -22 -80 -8 -39 9
-48 2 -48 -39 0 -13 13 -20 60 -29 49 -10 60 -16 60 -32 0 -10 -4 -19 -9 -19
-11 0 -139 28 -157 35 -8 2 -6 30 7 97 31 149 27 141 52 135 12 -3 50 -11 85
-18z m-2252 -94 c35 -55 64 -103 64 -107 0 -18 -37 -12 -55 9 -17 19 -26 22
-63 16 -37 -5 -43 -10 -50 -37 -6 -22 -15 -32 -31 -34 -20 -3 -22 0 -17 25 3
15 13 71 21 123 25 144 43 145 131 5z m-241 45 c-4 -12 0 -26 10 -36 20 -20
15 -38 -12 -42 -16 -2 -22 4 -26 30 -5 35 7 68 24 68 6 0 8 -9 4 -20z m2641 6
c8 -22 -18 -70 -41 -75 -19 -3 -19 -2 -3 16 12 13 14 23 8 29 -14 14 -2 44 16
44 8 0 17 -6 20 -14z m-2716 -25 c-13 -26 -13 -31 5 -31 20 0 19 -36 -1 -44
-22 -9 -22 -9 -29 24 -8 37 2 70 21 70 11 0 12 -4 4 -19z m2790 -4 c0 -28 -26
-67 -46 -67 -19 0 -18 10 4 27 11 9 13 16 6 19 -18 8 -4 44 17 44 13 0 19 -7
19 -23z"/>
<path d="M2200 4791 c0 -29 2 -31 38 -31 46 0 65 12 60 36 -2 15 -14 20 -51
22 -46 3 -47 3 -47 -27z"/>
<path d="M2400 4800 c0 -29 2 -30 44 -30 54 0 81 24 51 46 -10 8 -36 14 -57
14 -36 0 -38 -2 -38 -30z"/>
<path d="M1909 4792 c-48 -40 -17 -122 46 -122 40 0 65 26 65 68 0 62 -63 92
-111 54z"/>
<path d="M2896 4785 c-9 -34 -9 -33 41 -41 34 -5 43 -3 51 13 15 28 0 44 -45
50 -37 5 -41 3 -47 -22z"/>
<path d="M3123 4780 c-44 -18 -57 -84 -23 -115 64 -58 158 28 103 93 -22 25
-51 33 -80 22z"/>
<path d="M1001 4616 c-29 -30 -21 -79 15 -102 43 -29 104 3 104 54 0 69 -73
97 -119 48z"/>
<path d="M3892 4581 c-18 -25 -19 -30 -6 -35 34 -13 44 -6 44 29 0 43 -10 44
-38 6z"/>
<path d="M2193 4544 c-21 -21 -25 -32 -20 -66 7 -49 31 -78 67 -78 39 0 60 29
60 83 0 81 -56 112 -107 61z"/>
<path d="M2547 4563 c-4 -3 -7 -19 -7 -35 0 -25 3 -28 33 -28 31 0 57 14 57
31 0 27 -64 51 -83 32z"/>
<path d="M2791 4534 c-12 -15 -21 -41 -21 -59 0 -38 34 -85 61 -85 34 0 69 44
69 87 0 79 -65 112 -109 57z"/>
<path d="M1840 4506 c0 -31 3 -36 23 -36 32 0 60 23 56 46 -3 14 -14 20 -42
22 -36 3 -37 3 -37 -32z"/>
<path d="M1300 4406 c0 -13 -3 -31 -6 -40 -5 -13 1 -16 25 -16 36 0 38 7 14
49 -22 37 -33 39 -33 7z"/>
<path d="M2075 4099 c-553 -42 -1138 -179 -1703 -399 l-133 -52 5 -37 c3 -20
8 -76 11 -126 13 -188 78 -575 128 -768 l15 -57 -35 -43 c-19 -23 -38 -46 -42
-50 -4 -4 -74 19 -156 53 -82 33 -150 58 -152 56 -2 -2 21 -83 51 -180 108
-340 164 -522 180 -578 9 -32 22 -58 29 -58 7 0 36 7 64 14 l53 14 53 -86
c209 -339 406 -681 659 -1147 21 -38 51 -94 65 -122 17 -34 34 -53 45 -53 35
0 181 60 255 105 l76 46 28 -27 c15 -14 32 -23 37 -20 5 3 44 -10 85 -28 225
-103 507 -165 747 -166 201 0 453 44 677 120 133 44 174 64 207 98 l28 30 47
-33 c87 -62 286 -146 310 -130 6 3 36 54 67 113 118 220 230 424 361 652 157
273 378 640 386 640 1 0 27 -7 57 -15 30 -8 58 -15 62 -15 4 0 15 26 24 58 25
91 90 299 165 536 39 120 68 220 66 223 -3 2 -72 -23 -153 -56 l-148 -60 -32
37 c-59 67 -59 65 -25 219 58 265 116 691 109 799 l-3 46 -83 33 c-331 134
-818 276 -1157 339 -169 31 -408 61 -607 75 -167 12 -560 12 -723 0z m367
-195 c11 -11 31 -36 45 -57 13 -21 35 -42 49 -47 14 -6 31 -24 37 -40 6 -17
19 -32 28 -35 9 -3 19 -19 23 -35 5 -27 9 -30 45 -30 23 0 46 7 56 16 11 11
24 14 43 10 15 -4 42 -7 59 -6 30 1 109 -39 125 -63 8 -13 0 -35 -30 -74 l-24
-33 30 -25 c57 -48 44 -91 -21 -67 -25 9 -34 9 -46 -2 -9 -8 -36 -17 -61 -21
-49 -8 -149 -68 -157 -94 -2 -9 -11 -30 -20 -48 -8 -17 -13 -42 -10 -55 7 -27
1 -38 -34 -60 -29 -19 -44 -79 -27 -111 16 -32 1 -31 -73 3 -93 43 -137 45
-158 7 -14 -24 -14 -29 -1 -37 8 -5 44 -10 80 -11 36 0 81 -6 100 -13 l35 -13
-30 -6 c-16 -4 -52 -9 -80 -12 -85 -11 -85 -11 -85 -64 0 -33 6 -56 20 -74 30
-38 25 -54 -17 -62 -20 -3 -63 -20 -95 -36 -44 -22 -71 -29 -118 -29 -64 0
-72 8 -45 44 22 29 19 33 -25 40 -22 3 -40 11 -40 17 0 6 8 8 18 5 9 -2 27 -7
39 -11 46 -13 213 102 213 146 0 32 -137 -19 -231 -86 l-47 -34 -31 70 c-17
38 -31 73 -31 77 0 5 -13 21 -30 37 -16 15 -32 42 -36 59 -9 43 -57 101 -96
117 -61 25 -99 89 -62 103 15 6 15 8 2 24 -14 16 -21 35 -35 103 -9 49 115
174 144 145 5 -4 8 -27 8 -52 0 -38 3 -45 28 -55 15 -7 37 -23 47 -37 19 -23
21 -24 38 -9 10 9 26 45 37 79 24 82 61 119 151 152 87 32 146 85 179 161 30
68 31 73 4 102 -19 19 -20 25 -8 39 17 21 92 14 121 -12z m190 -1033 c2 -20 9
-27 31 -29 19 -2 34 -13 45 -33 24 -41 73 -40 130 2 23 17 46 28 51 24 6 -3 8
-40 4 -92 l-6 -86 39 6 c65 11 77 2 127 -93 48 -89 55 -118 36 -137 -5 -5 -11
-50 -12 -99 -2 -76 -6 -94 -26 -121 -20 -27 -22 -35 -11 -48 10 -12 10 -21 0
-45 -15 -35 -1 -80 24 -80 33 0 22 -50 -21 -103 -13 -16 -23 -39 -23 -52 0
-12 -7 -28 -15 -35 -8 -7 -15 -20 -15 -30 0 -49 -69 -81 -112 -52 -80 53 -98
69 -98 83 0 9 -6 22 -14 28 -10 8 -11 23 -4 63 4 29 8 98 9 153 1 55 8 156 16
225 21 170 15 243 -28 328 -41 81 -74 103 -168 111 -63 6 -66 7 -65 31 1 14 9
45 18 70 9 25 18 59 22 75 l6 30 28 -34 c16 -19 30 -46 32 -60z m-212 -241 c0
-5 -4 -10 -9 -10 -6 0 -13 5 -16 10 -3 6 1 10 9 10 9 0 16 -4 16 -10z m-10
-70 c0 -5 -7 -10 -16 -10 -8 0 -12 5 -9 10 3 6 10 10 16 10 5 0 9 -4 9 -10z
m-174 -53 c20 -24 24 -39 24 -94 0 -77 -12 -75 -55 10 -15 29 -35 59 -46 69
-10 9 -19 27 -19 41 0 24 1 25 36 14 19 -6 46 -24 60 -40z m162 -18 c-2 -6 -8
-10 -13 -10 -5 0 -11 4 -13 10 -2 6 4 11 13 11 9 0 15 -5 13 -11z m280 -94 c3
-50 -2 -93 -17 -152 -25 -97 -25 -103 -6 -103 8 0 34 -8 57 -17 l43 -18 -54
-5 c-67 -6 -89 -31 -53 -60 25 -21 28 -30 9 -30 -7 0 -23 14 -35 30 -22 29
-25 30 -101 30 l-78 0 -7 31 c-3 17 -6 74 -6 125 l0 94 74 0 c40 0 87 3 103 6
29 6 29 6 29 72 -1 37 3 76 7 87 8 20 8 20 19 0 6 -10 13 -51 16 -90z m-288
17 c0 -13 -12 -22 -22 -16 -10 6 -1 24 13 24 5 0 9 -4 9 -8z m-144 -119 c-11
-11 -19 6 -11 24 8 17 8 17 12 0 3 -10 2 -21 -1 -24z m-1430 -428 c-9 -24 -21
-18 -42 20 -10 19 -24 35 -31 35 -21 0 -25 -20 -8 -46 17 -26 14 -54 -4 -54
-6 0 -17 14 -26 30 -17 32 -42 40 -51 15 -3 -8 3 -31 15 -50 19 -32 19 -36 4
-42 -17 -7 -33 10 -63 67 l-18 36 86 51 87 52 28 -50 c16 -27 26 -56 23 -64z
m3402 58 c2 -7 -8 -17 -22 -23 -25 -9 -34 -29 -20 -43 4 -4 20 5 36 18 34 29
64 32 96 9 26 -18 29 -59 6 -92 -20 -29 -87 -32 -82 -4 2 9 14 18 26 20 26 4
40 28 24 44 -7 7 -23 1 -50 -17 -35 -23 -43 -25 -64 -14 -44 23 -49 52 -17 93
22 28 59 32 67 9z m-3346 -130 c8 -10 17 -25 20 -33 8 -22 -9 -60 -27 -60 -16
0 -19 9 -15 48 1 15 -4 22 -16 22 -14 0 -16 -7 -11 -40 13 -97 -105 -129 -129
-34 -9 34 22 80 41 64 11 -9 12 -17 4 -32 -14 -26 -4 -48 22 -48 20 0 21 4 15
44 -6 37 -4 48 13 65 26 26 63 27 83 4z m3248 -2 c0 -3 -9 -21 -20 -38 -19
-31 -19 -33 -2 -42 15 -8 22 -3 37 25 10 19 22 34 27 34 17 0 19 -29 4 -59
-15 -28 -15 -31 3 -41 16 -8 23 -5 41 25 22 36 34 43 45 25 5 -8 -31 -85 -51
-109 -2 -2 -145 76 -172 95 -2 1 11 25 28 52 21 34 36 49 46 45 7 -3 14 -8 14
-12z m-3156 -157 c23 -43 26 -58 17 -67 -10 -9 -15 -8 -25 6 -17 23 -18 22
-87 -18 -67 -39 -75 -41 -82 -20 -4 10 12 24 51 46 82 46 83 48 71 71 -8 16
-8 23 2 29 21 13 22 13 53 -47z m3104 -4 c12 -12 22 -27 22 -35 0 -11 12 -15
46 -15 38 0 45 -3 42 -17 -2 -14 -15 -19 -48 -21 -72 -4 -79 -10 -40 -34 19
-12 36 -22 38 -23 1 -1 0 -9 -4 -18 -7 -19 -6 -19 -116 45 -76 43 -73 30 -23
113 19 31 53 33 83 5z m-3043 -110 c0 -7 -27 -29 -60 -49 -41 -25 -60 -43 -60
-56 0 -32 32 -29 97 10 47 28 63 33 69 23 13 -20 13 -21 -57 -60 -76 -44 -116
-48 -138 -16 -35 49 -15 83 82 140 49 29 67 31 67 8z m2970 -50 c70 -34 90
-94 47 -142 -36 -41 -145 -5 -166 55 -13 36 2 78 34 94 33 17 37 16 85 -7z
m-2865 -122 c31 -51 26 -82 -17 -117 -43 -35 -91 -48 -122 -32 -20 11 -51 59
-51 80 0 9 146 99 163 101 4 0 16 -15 27 -32z m2815 -112 c15 24 24 31 34 25
12 -8 12 -14 2 -38 -6 -15 -19 -38 -29 -50 l-17 -22 -75 45 c-41 24 -79 45
-83 47 -5 1 -5 10 -1 20 6 16 14 13 78 -22 l72 -39 19 34z m-2740 -35 c0 -14
-156 -112 -167 -105 -22 14 -1 36 70 78 77 45 97 50 97 27z m2704 -83 c3 -25
-1 -30 -24 -26 -18 4 -29 -1 -41 -19 -14 -22 -14 -26 0 -42 13 -14 13 -20 3
-34 -10 -14 -20 -6 -79 60 -52 60 -65 80 -58 93 9 16 15 16 104 -4 52 -12 94
-24 95 -28z m-2644 -13 c27 -26 32 -70 12 -96 -21 -28 -81 -59 -114 -59 -22 0
-38 8 -52 26 -37 47 -21 96 43 135 43 26 82 24 111 -6z m2478 -103 c49 -49 66
-73 61 -85 -8 -21 -2 -21 -111 5 -56 13 -93 27 -93 34 0 21 18 26 53 16 17 -6
46 -13 62 -17 29 -6 29 -5 -19 43 -42 43 -53 72 -28 72 4 0 38 -31 75 -68z
m-1585 -139 c17 -24 15 -33 -8 -33 -11 0 -20 4 -20 9 0 13 -27 21 -45 15 -26
-10 -17 -23 33 -46 40 -20 47 -28 50 -55 3 -25 -2 -35 -22 -49 -45 -29 -116
-2 -116 45 0 18 24 12 43 -9 20 -24 40 -26 57 -5 16 19 10 26 -43 45 -37 14
-42 19 -45 51 -2 29 1 38 20 47 29 15 79 7 96 -15z m142 8 c14 -27 60 -156 60
-170 0 -21 -27 -11 -38 14 -9 19 -19 25 -45 25 -26 0 -36 -6 -45 -25 -6 -14
-18 -25 -27 -25 -19 0 -20 -5 16 91 40 111 57 130 79 90z m200 -1 c0 -15 -7
-20 -25 -20 -23 0 -24 -3 -27 -77 -3 -65 -6 -78 -20 -81 -16 -3 -18 6 -18 77
0 80 0 81 -25 81 -24 0 -34 18 -18 33 3 4 35 7 70 7 56 0 63 -2 63 -20z m60
-82 c0 -80 -3 -98 -15 -98 -12 0 -15 18 -15 98 0 81 3 99 15 99 12 0 15 -18
15 -99z m156 81 c17 -14 18 -73 1 -87 -6 -6 -28 -12 -47 -14 -33 -3 -35 -6
-38 -40 -2 -25 -8 -38 -18 -38 -11 0 -14 20 -14 101 l0 102 51 -6 c28 -4 57
-12 65 -18z m183 -5 c27 -22 31 -33 31 -73 0 -53 -23 -86 -65 -97 -88 -22
-143 100 -76 167 36 36 70 37 110 3z"/>
<path d="M4006 1588 c-15 -21 -15 -24 1 -36 15 -11 20 -10 31 5 7 10 11 24 10
32 -5 24 -25 23 -42 -1z"/>
<path d="M3923 1443 c-7 -2 -13 -17 -13 -32 0 -45 82 -80 109 -47 17 20 -1 51
-39 71 -30 16 -37 17 -57 8z"/>
<path d="M1038 1302 c-50 -29 -57 -42 -33 -62 18 -15 54 -7 85 18 18 14 22 25
16 45 -8 33 -9 33 -68 -1z"/>
<path d="M3778 1098 c19 -19 24 -21 32 -8 11 17 12 15 -25 24 l-30 7 23 -23z"/>
<path d="M1167 1072 c-29 -18 -44 -52 -32 -73 10 -15 72 -5 96 17 22 20 24 45
7 62 -16 16 -38 15 -71 -6z"/>
<path d="M2262 801 c-10 -29 -10 -31 14 -31 22 0 24 3 19 23 -12 37 -22 40
-33 8z"/>
<path d="M2630 825 c0 -24 3 -26 33 -23 24 2 32 8 32 23 0 15 -8 21 -32 23
-30 3 -33 1 -33 -23z"/>
<path d="M2822 849 c-19 -7 -22 -16 -22 -58 0 -41 4 -52 21 -62 48 -25 93 34
70 93 -11 29 -37 39 -69 27z"/>
<path d="M1814 321 c-3 -14 -13 -52 -21 -85 -8 -34 -11 -62 -5 -68 5 -5 31
-11 59 -14 46 -6 51 -4 71 21 55 70 33 140 -51 161 -47 12 -47 12 -53 -15z
m70 -21 c20 -7 26 -17 26 -39 0 -50 -19 -81 -51 -81 -37 0 -42 11 -29 62 20
77 16 73 54 58z"/>
<path d="M3042 342 c-13 -9 -32 -102 -32 -159 0 -23 5 -33 15 -33 9 0 15 9 15
25 0 20 6 25 35 31 26 5 41 2 54 -10 18 -17 41 -21 41 -9 0 10 -103 162 -110
163 -3 0 -11 -4 -18 -8z m33 -68 c14 -22 15 -28 4 -35 -24 -15 -29 -10 -29 26
0 19 2 35 4 35 2 0 11 -12 21 -26z"/>
<path d="M2925 274 c3 -26 9 -54 12 -63 2 -9 -17 8 -44 37 -47 50 -83 67 -83
37 0 -12 10 -69 26 -142 2 -13 12 -23 20 -23 16 0 16 9 -2 100 -5 21 3 16 41
-27 26 -29 55 -53 66 -53 23 0 23 -4 4 93 -8 43 -15 81 -15 83 0 2 -7 4 -16 4
-14 0 -15 -7 -9 -46z"/>
<path d="M1976 224 c-12 -61 -14 -90 -7 -97 16 -16 19 -8 40 86 16 74 17 86 4
91 -8 3 -16 6 -17 6 -2 0 -11 -39 -20 -86z"/>
<path d="M2057 272 c-31 -34 -18 -60 46 -92 32 -16 32 -44 0 -48 -14 -2 -27 4
-35 17 -17 28 -48 28 -41 1 14 -52 100 -69 129 -25 22 34 10 62 -37 85 -41 21
-53 50 -20 50 11 0 26 -7 35 -15 19 -19 36 -19 36 -1 0 21 -39 46 -71 46 -14
0 -33 -8 -42 -18z"/>
<path d="M2753 223 c13 -103 16 -113 33 -113 13 0 15 9 10 53 -15 118 -17 127
-35 127 -15 0 -16 -7 -8 -67z"/>
<path d="M2219 252 c-32 -27 -34 -112 -3 -143 36 -35 124 -24 124 17 0 21 -22
28 -32 10 -12 -21 -64 -21 -72 0 -12 31 -6 81 12 97 24 22 31 21 57 -3 28 -26
51 -13 29 18 -19 28 -82 30 -115 4z"/>
<path d="M2380 175 c0 -78 3 -95 15 -95 12 0 15 17 15 95 0 78 -3 95 -15 95
-12 0 -15 -17 -15 -95z"/>
<path d="M2444 224 c3 -26 6 -69 6 -95 0 -36 4 -49 14 -49 10 0 16 13 18 38 3
34 5 37 38 40 39 3 60 24 60 58 0 38 -26 54 -87 54 l-56 0 7 -46z m100 -1 c8
-20 -1 -30 -36 -38 -26 -7 -28 -5 -28 24 0 28 3 31 29 31 18 0 31 -6 35 -17z"/>
<path d="M2604 224 c3 -26 6 -61 6 -78 0 -52 10 -59 74 -51 40 5 56 12 56 22
0 12 -9 14 -44 9 -43 -7 -43 -6 -50 25 -3 17 -6 44 -6 59 0 39 -9 60 -27 60
-13 0 -15 -9 -9 -46z"/>
</g>
</svg>
